# xmcd
# 
# Track frame offsets:
#     150
#     14440
#     26856
#     42994
#     62599
#     79320
#     93436
#     104445
#     122742
#     146371
#     164567
#     176899
#     195155
#     206677
#     221126
#     234068
# 
# Disc length: 3478
# 
# Revision: 5
# Processed by: cddbd v1.5.2PL0 Copyright (c) Steve Scherf et al.
# Submitted via: fre:ac v1.0.17
# 
DISCID=e00d9410
DTITLE=Various Artist - RussenSoul
DYEAR=2004
DGENRE=Folk/Rock
TTITLE0=5Nizza - Soldat
TTITLE1=Oleg Skripka - Im Frühlingswald
TTITLE2=Nol - Ich laufe. Ich rauche
TTITLE3=Pelagea - Kossack
TTITLE4=Zak May and Shiva - Viel Glück im Privatleben
TTITLE5=Dr. Bajan - Moldavaneska
TTITLE6=Paperny T.A.M. - Tänze
TTITLE7=Leonid Soybelman - Nur einmal im Leben
TTITLE8=Amsterdam Klezmer Band - Der Traum
TTITLE9=Horonko Orchester - Tschubtschik
TTITLE10=Markscheider Kunst - Kokeiro
TTITLE11=Sveta Kolibaba - Nicht mit mir
TTITLE12=Wolga Wolga - Mein böser Tod
TTITLE13=RotFront - Zhenya
TTITLE14=Leningrad - Terminator
TTITLE15=La Minor - Die Bären
EXTD=Trikont US-0318\nhttp://www.trikont.de/interpret/details/318_russensoul.html
EXTT0=
EXTT1=
EXTT2=
EXTT3=
EXTT4=
EXTT5=
EXTT6=
EXTT7=
EXTT8=
EXTT9=
EXTT10=
EXTT11=
EXTT12=
EXTT13=
EXTT14=
EXTT15=
PLAYORDER=
